<svg xmlns="http://www.w3.org/2000/svg" viewBox="0 0 695.3 691.5">
<circle cx="346.6" cy="345.9" r="334.6" class="main-circle" fill="#f4495c"/>
  <path d="M282.9 409c-12.5 6.8-28.7 10.3-48.7 10.3-15 0-28.9-2.7-41.8-8.2-12.9-5.5-23.9-12.9-33.2-22.2-9.3-9.3-16.5-20.3-21.7-32.8-5.2-12.5-7.9-25.9-7.9-40.1v-.8c0-14.2 2.6-27.6 7.9-40.3 5.2-12.7 12.5-23.7 21.7-33.2 9.2-9.4 20.3-16.9 33.2-22.4 12.9-5.5 27-8.2 42.5-8.2 19 0 34.7 3 47.2 8.9 12.5 6 23.5 14.2 33 24.6L280.3 282c-6.5-6.7-13.2-12.1-20.1-16-6.9-4-15.4-6-25.7-6-7.2 0-13.8 1.4-19.7 4.3-5.9 2.9-11 6.8-15.4 11.7-4.4 5-7.7 10.8-10.1 17.3-2.4 6.6-3.6 13.6-3.6 21.1v.7c0 7.7 1.2 14.9 3.6 21.6 2.4 6.7 5.8 12.5 10.3 17.5 4.5 5 9.9 8.9 16.1 11.7 6.3 2.9 13.2 4.3 21 4.3 9.5 0 17.8-1.9 24.9-5.8 7.1-3.8 14.2-9 21.2-15.5l33.4 33.6c-9.7 10.9-20.8 19.7-33.3 26.5z" class="semi-circle-eye" fill="#fff"/>
  <path d="M552.8 355.7c-5.5 12.6-13.1 23.6-22.9 33-9.7 9.4-21.2 16.9-34.5 22.4-13.2 5.5-27.7 8.2-43.5 8.2-15.5 0-29.9-2.7-43.1-8-13.2-5.3-24.7-12.7-34.3-22-9.6-9.3-17.2-20.3-22.7-32.8-5.5-12.5-8.2-26-8.2-40.4v-.8c0-14.4 2.7-27.9 8.2-40.5 5.5-12.5 13.1-23.5 22.9-33 9.7-9.4 21.2-16.9 34.5-22.4 13.2-5.5 27.7-8.2 43.5-8.2 15.5 0 29.9 2.7 43.1 8 13.2 5.3 24.7 12.7 34.3 22 9.6 9.3 17.2 20.3 22.7 32.8 5.5 12.6 8.2 26 8.2 40.5v.7c.1 14.5-2.7 27.9-8.2 40.5zm-48-40.5c0-7.5-1.3-14.5-3.7-21.1-2.5-6.6-6.1-12.4-10.9-17.5-4.7-5.1-10.4-9.1-16.9-12.1-6.5-3-13.6-4.5-21.4-4.5-8.2 0-15.6 1.4-21.9 4.3-6.4 2.9-11.8 6.8-16.3 11.7-4.5 5-7.9 10.8-10.3 17.3-2.4 6.6-3.6 13.6-3.6 21.1v.7c0 7.5 1.2 14.5 3.7 21.1 2.5 6.6 6.1 12.4 10.9 17.5 4.7 5.1 10.3 9.1 16.7 12.1 6.4 3 13.5 4.5 21.5 4.5 8.2 0 15.6-1.4 21.9-4.3 6.4-2.9 11.8-6.8 16.3-11.7 4.5-5 7.9-10.7 10.3-17.3 2.4-6.6 3.6-13.6 3.6-21.1v-.7z" class="circle-eye" fill="#fff"/>
  <path class="mouth" fill="#fff" d="M245.4 484.8h192.4v42.7H245.4z"/>
</svg>